<svg xmlns="http://www.w3.org/2000/svg" viewBox="0 0 760 520">
  <defs>
    <linearGradient id="sky" x1="0" x2="0" y1="0" y2="1">
      <stop offset="0" stop-color="#cfe6ff"/>
      <stop offset="1" stop-color="#f8fbff"/>
    </linearGradient>
    <linearGradient id="water" x1="0" x2="1" y1="0" y2="0">
      <stop offset="0" stop-color="#d8ecff"/>
      <stop offset="1" stop-color="#9dccf4"/>
    </linearGradient>
  </defs>
  <rect width="760" height="520" fill="url(#sky)"/>
  <path d="M0 300c100-40 150-50 260-22 115 30 190 25 300-15 70-25 115-20 200 12v245H0z" fill="url(#water)" opacity=".8"/>
  <path d="M0 275c90-70 180-88 290-45 120 47 260 34 400-46 55-31 92-32 130-18v105z" fill="#77a8c8" opacity=".35"/>
  <g opacity=".9">
    <rect x="470" y="174" width="42" height="132" rx="4" fill="#ffffff"/>
    <rect x="520" y="152" width="52" height="154" rx="5" fill="#e8f2ff"/>
    <rect x="584" y="125" width="48" height="181" rx="5" fill="#ffffff"/>
    <rect x="638" y="190" width="36" height="116" rx="4" fill="#e8f2ff"/>
    <path d="M610 35v260" stroke="#0b2147" stroke-width="5"/>
    <path d="M585 116h50l-8 24h-34z" fill="#0b2147"/>
    <circle cx="610" cy="102" r="10" fill="#1f63d8"/>
  </g>
  <g transform="translate(370 338)">
    <path d="M0 55h240l-20 46H30z" fill="#0b2147"/>
    <rect x="35" y="15" width="38" height="26" fill="#1f63d8"/>
    <rect x="78" y="15" width="38" height="26" fill="#ef6c4f"/>
    <rect x="121" y="15" width="38" height="26" fill="#1f63d8"/>
    <rect x="164" y="15" width="38" height="26" fill="#ef6c4f"/>
    <rect x="56" y="-14" width="38" height="26" fill="#ef6c4f"/>
    <rect x="99" y="-14" width="38" height="26" fill="#1f63d8"/>
    <rect x="142" y="-14" width="38" height="26" fill="#ef6c4f"/>
  </g>
  <g fill="#fff" opacity=".9">
    <circle cx="80" cy="86" r="28"/>
    <circle cx="112" cy="82" r="38"/>
    <circle cx="150" cy="92" r="25"/>
    <rect x="80" y="86" width="100" height="28"/>
  </g>
</svg>
