<svg xmlns="http://www.w3.org/2000/svg" viewBox="0 0 600 330">
  <g fill="#ffffff" opacity=".55">
    <circle cx="83" cy="110" r="2"/><circle cx="100" cy="108" r="2"/><circle cx="120" cy="117" r="2"/><circle cx="145" cy="128" r="2"/><circle cx="160" cy="145" r="2"/><circle cx="198" cy="100" r="2"/><circle cx="220" cy="105" r="2"/><circle cx="245" cy="116" r="2"/><circle cx="270" cy="134" r="2"/><circle cx="300" cy="150" r="2"/><circle cx="330" cy="130" r="2"/><circle cx="360" cy="122" r="2"/><circle cx="388" cy="138" r="2"/><circle cx="420" cy="156" r="2"/><circle cx="455" cy="148" r="2"/><circle cx="485" cy="168" r="2"/><circle cx="510" cy="190" r="2"/><circle cx="530" cy="210" r="2"/><circle cx="350" cy="205" r="2"/><circle cx="380" cy="220" r="2"/><circle cx="410" cy="235" r="2"/><circle cx="450" cy="240" r="2"/><circle cx="180" cy="198" r="2"/><circle cx="200" cy="220" r="2"/><circle cx="230" cy="236" r="2"/><circle cx="260" cy="245" r="2"/>
  </g>
</svg>
